<svg width="327" height="60" viewBox="0 0 327 60" fill="none" xmlns="http://www.w3.org/2000/svg">
<g filter="url(#filter0_dd_313_3230)">
<rect x="2" y="2" width="323" height="54" rx="27" fill="white" shape-rendering="crispEdges"/>
<g filter="url(#filter1_d_313_3230)">
<path d="M49.0974 31.3992L48.2968 34.3879L45.3706 34.4498C44.4961 32.8278 44.0001 30.9721 44.0001 29C44.0001 27.093 44.4638 25.2947 45.2859 23.7112H45.2865L47.8917 24.1889L49.0328 26.7783C48.794 27.4747 48.6638 28.2222 48.6638 29C48.6639 29.8442 48.8168 30.653 49.0974 31.3992Z" fill="#FBBB00"/>
</g>
<g filter="url(#filter2_d_313_3230)">
<path d="M66.799 26.8517C66.9311 27.5473 66.9999 28.2658 66.9999 29C66.9999 29.8233 66.9134 30.6264 66.7485 31.4011C66.1886 34.0373 64.7259 36.3392 62.6995 37.9681L62.6988 37.9675L59.4176 37.8001L58.9532 34.901C60.2978 34.1125 61.3486 32.8784 61.9021 31.4011H55.7528V26.8517H61.9918H66.799Z" fill="#518EF8"/>
</g>
<g filter="url(#filter3_d_313_3230)">
<path d="M62.6988 37.9675L62.6994 37.9681C60.7286 39.5522 58.2251 40.5 55.4999 40.5C51.1204 40.5 47.3128 38.0522 45.3704 34.4499L49.0972 31.3992C50.0684 33.9911 52.5687 35.8362 55.4999 35.8362C56.7598 35.8362 57.9402 35.4956 58.9531 34.901L62.6988 37.9675Z" fill="#28B446"/>
</g>
<g filter="url(#filter4_d_313_3230)">
<path d="M62.8405 20.1475L59.115 23.1975C58.0668 22.5423 56.8276 22.1638 55.5001 22.1638C52.5025 22.1638 49.9555 24.0935 49.0329 26.7783L45.2866 23.7113H45.286C47.1999 20.0212 51.0555 17.5 55.5001 17.5C58.2904 17.5 60.8489 18.4939 62.8405 20.1475Z" fill="#F14336"/>
</g>
<path d="M101.059 26.1847H98.8427C98.7575 25.7112 98.5988 25.2945 98.3668 24.9347C98.1348 24.5748 97.8507 24.2694 97.5146 24.0185C97.1784 23.7675 96.802 23.5781 96.3853 23.4503C95.9734 23.3224 95.5354 23.2585 95.0714 23.2585C94.2333 23.2585 93.4828 23.4692 92.82 23.8906C92.1618 24.312 91.641 24.9299 91.2575 25.7443C90.8787 26.5587 90.6893 27.553 90.6893 28.7273C90.6893 29.911 90.8787 30.91 91.2575 31.7244C91.641 32.5388 92.1642 33.1544 92.8271 33.571C93.4899 33.9877 94.2357 34.196 95.0643 34.196C95.5236 34.196 95.9592 34.1345 96.3711 34.0114C96.7878 33.8835 97.1642 33.6965 97.5004 33.4503C97.8365 33.2041 98.1206 32.9034 98.3526 32.5483C98.5894 32.1884 98.7527 31.7765 98.8427 31.3125L101.059 31.3196C100.94 32.0346 100.711 32.6927 100.37 33.294C100.034 33.8906 99.6003 34.4067 99.07 34.8423C98.5444 35.2732 97.9431 35.607 97.266 35.8438C96.5889 36.0805 95.8503 36.1989 95.0501 36.1989C93.7906 36.1989 92.6684 35.9006 91.6836 35.304C90.6988 34.7027 89.9222 33.8433 89.3541 32.7259C88.7906 31.6084 88.5089 30.2756 88.5089 28.7273C88.5089 27.1742 88.793 25.8414 89.3612 24.7287C89.9293 23.6113 90.7059 22.7543 91.6907 22.1577C92.6756 21.5563 93.7953 21.2557 95.0501 21.2557C95.8219 21.2557 96.5416 21.367 97.2092 21.5895C97.8815 21.8073 98.4852 22.1293 99.0202 22.5554C99.5553 22.9768 99.998 23.4929 100.348 24.1037C100.699 24.7098 100.935 25.4034 101.059 26.1847ZM107.509 36.2202C106.487 36.2202 105.594 35.9858 104.832 35.517C104.07 35.0483 103.478 34.3925 103.056 33.5497C102.635 32.7069 102.424 31.7221 102.424 30.5952C102.424 29.4635 102.635 28.474 103.056 27.6264C103.478 26.7789 104.07 26.1207 104.832 25.652C105.594 25.1832 106.487 24.9489 107.509 24.9489C108.532 24.9489 109.425 25.1832 110.187 25.652C110.949 26.1207 111.541 26.7789 111.963 27.6264C112.384 28.474 112.595 29.4635 112.595 30.5952C112.595 31.7221 112.384 32.7069 111.963 33.5497C111.541 34.3925 110.949 35.0483 110.187 35.517C109.425 35.9858 108.532 36.2202 107.509 36.2202ZM107.516 34.4375C108.179 34.4375 108.729 34.2623 109.164 33.9119C109.6 33.5616 109.922 33.0952 110.13 32.5128C110.343 31.9304 110.45 31.2888 110.45 30.5881C110.45 29.892 110.343 29.2528 110.13 28.6705C109.922 28.0833 109.6 27.6122 109.164 27.2571C108.729 26.902 108.179 26.7244 107.516 26.7244C106.849 26.7244 106.295 26.902 105.855 27.2571C105.419 27.6122 105.095 28.0833 104.882 28.6705C104.673 29.2528 104.569 29.892 104.569 30.5881C104.569 31.2888 104.673 31.9304 104.882 32.5128C105.095 33.0952 105.419 33.5616 105.855 33.9119C106.295 34.2623 106.849 34.4375 107.516 34.4375ZM116.489 29.5227V36H114.365V25.0909H116.403V26.8665H116.538C116.789 26.2888 117.182 25.8248 117.717 25.4744C118.257 25.1241 118.936 24.9489 119.756 24.9489C120.499 24.9489 121.15 25.1051 121.709 25.4176C122.267 25.7254 122.701 26.1847 123.008 26.7955C123.316 27.4062 123.47 28.1615 123.47 29.0611V36H121.347V29.3168C121.347 28.526 121.141 27.9081 120.729 27.4631C120.317 27.0133 119.751 26.7884 119.031 26.7884C118.539 26.7884 118.101 26.8949 117.717 27.108C117.338 27.321 117.038 27.6335 116.815 28.0455C116.597 28.4527 116.489 28.9451 116.489 29.5227ZM130.81 25.0909V26.7955H124.852V25.0909H130.81ZM126.45 22.4773H128.573V32.7969C128.573 33.2088 128.635 33.5189 128.758 33.7273C128.881 33.9309 129.04 34.0705 129.234 34.1463C129.433 34.2173 129.648 34.2528 129.88 34.2528C130.051 34.2528 130.2 34.241 130.327 34.2173C130.455 34.1937 130.555 34.1747 130.626 34.1605L131.009 35.9148C130.886 35.9621 130.711 36.0095 130.484 36.0568C130.256 36.1089 129.972 36.1373 129.631 36.142C129.073 36.1515 128.552 36.0521 128.069 35.8438C127.586 35.6354 127.195 35.3134 126.897 34.8778C126.599 34.4422 126.45 33.8954 126.45 33.2372V22.4773ZM132.56 36V25.0909H134.683V36H132.56ZM133.632 23.4077C133.263 23.4077 132.945 23.2846 132.68 23.0384C132.42 22.7874 132.29 22.4891 132.29 22.1435C132.29 21.7931 132.42 21.4948 132.68 21.2486C132.945 20.9976 133.263 20.8722 133.632 20.8722C134.001 20.8722 134.316 20.9976 134.577 21.2486C134.842 21.4948 134.974 21.7931 134.974 22.1435C134.974 22.4891 134.842 22.7874 134.577 23.0384C134.316 23.2846 134.001 23.4077 133.632 23.4077ZM139.064 29.5227V36H136.94V25.0909H138.978V26.8665H139.113C139.364 26.2888 139.757 25.8248 140.292 25.4744C140.832 25.1241 141.511 24.9489 142.331 24.9489C143.074 24.9489 143.725 25.1051 144.284 25.4176C144.842 25.7254 145.276 26.1847 145.583 26.7955C145.891 27.4062 146.045 28.1615 146.045 29.0611V36H143.922V29.3168C143.922 28.526 143.716 27.9081 143.304 27.4631C142.892 27.0133 142.326 26.7884 141.606 26.7884C141.114 26.7884 140.676 26.8949 140.292 27.108C139.913 27.321 139.613 27.6335 139.39 28.0455C139.172 28.4527 139.064 28.9451 139.064 29.5227ZM155.204 31.4759V25.0909H157.334V36H155.246V34.1108H155.133C154.882 34.6932 154.479 35.1785 153.925 35.5668C153.376 35.9503 152.692 36.142 151.873 36.142C151.172 36.142 150.552 35.9882 150.012 35.6804C149.477 35.3679 149.055 34.9062 148.748 34.2955C148.445 33.6847 148.293 32.9295 148.293 32.0298V25.0909H150.417V31.7741C150.417 32.5175 150.623 33.1094 151.035 33.5497C151.447 33.9901 151.982 34.2102 152.64 34.2102C153.037 34.2102 153.433 34.1108 153.826 33.9119C154.224 33.7131 154.553 33.4124 154.813 33.0099C155.078 32.6075 155.208 32.0961 155.204 31.4759ZM164.289 36.2202C163.215 36.2202 162.289 35.9905 161.512 35.5312C160.741 35.0672 160.144 34.4162 159.723 33.5781C159.306 32.7353 159.098 31.7481 159.098 30.6165C159.098 29.4991 159.306 28.5142 159.723 27.6619C160.144 26.8097 160.731 26.1444 161.484 25.6662C162.242 25.188 163.127 24.9489 164.14 24.9489C164.756 24.9489 165.352 25.0507 165.93 25.2543C166.508 25.4579 167.026 25.7775 167.485 26.2131C167.945 26.6487 168.307 27.2145 168.572 27.9105C168.837 28.6018 168.97 29.4422 168.97 30.4318V31.1847H160.298V29.5938H166.889C166.889 29.035 166.775 28.5402 166.548 28.1094C166.321 27.6738 166.001 27.3305 165.589 27.0795C165.182 26.8286 164.704 26.7031 164.154 26.7031C163.558 26.7031 163.037 26.8499 162.592 27.1435C162.152 27.4323 161.811 27.8111 161.569 28.2798C161.332 28.7438 161.214 29.2481 161.214 29.7926V31.0355C161.214 31.7647 161.342 32.3849 161.598 32.8963C161.858 33.4077 162.22 33.7983 162.684 34.0682C163.148 34.3333 163.69 34.4659 164.311 34.4659C164.713 34.4659 165.08 34.4091 165.412 34.2955C165.743 34.1771 166.029 34.0019 166.271 33.7699C166.512 33.5379 166.697 33.2514 166.825 32.9105L168.835 33.2727C168.674 33.8646 168.385 34.383 167.968 34.8281C167.556 35.2685 167.038 35.6117 166.413 35.858C165.793 36.0994 165.085 36.2202 164.289 36.2202ZM177.784 36L174.574 25.0909H176.768L178.906 33.1023H179.013L181.158 25.0909H183.352L185.483 33.0668H185.589L187.713 25.0909H189.908L186.704 36H184.538L182.322 28.1236H182.159L179.943 36H177.784ZM191.323 36V25.0909H193.446V36H191.323ZM192.395 23.4077C192.026 23.4077 191.709 23.2846 191.444 23.0384C191.183 22.7874 191.053 22.4891 191.053 22.1435C191.053 21.7931 191.183 21.4948 191.444 21.2486C191.709 20.9976 192.026 20.8722 192.395 20.8722C192.765 20.8722 193.079 20.9976 193.34 21.2486C193.605 21.4948 193.738 21.7931 193.738 22.1435C193.738 22.4891 193.605 22.7874 193.34 23.0384C193.079 23.2846 192.765 23.4077 192.395 23.4077ZM200.796 25.0909V26.7955H194.837V25.0909H200.796ZM196.435 22.4773H198.558V32.7969C198.558 33.2088 198.62 33.5189 198.743 33.7273C198.866 33.9309 199.025 34.0705 199.219 34.1463C199.418 34.2173 199.633 34.2528 199.865 34.2528C200.036 34.2528 200.185 34.241 200.313 34.2173C200.44 34.1937 200.54 34.1747 200.611 34.1605L200.994 35.9148C200.871 35.9621 200.696 36.0095 200.469 36.0568C200.242 36.1089 199.958 36.1373 199.617 36.142C199.058 36.1515 198.537 36.0521 198.054 35.8438C197.571 35.6354 197.181 35.3134 196.882 34.8778C196.584 34.4422 196.435 33.8954 196.435 33.2372V22.4773ZM204.903 29.5227V36H202.779V21.4545H204.874V26.8665H205.009C205.265 26.2794 205.655 25.813 206.181 25.4673C206.707 25.1217 207.393 24.9489 208.241 24.9489C208.989 24.9489 209.642 25.1027 210.201 25.4105C210.764 25.7183 211.2 26.1776 211.508 26.7884C211.82 27.3944 211.977 28.152 211.977 29.0611V36H209.853V29.3168C209.853 28.5166 209.647 27.8963 209.235 27.456C208.823 27.0109 208.25 26.7884 207.516 26.7884C207.014 26.7884 206.565 26.8949 206.167 27.108C205.774 27.321 205.464 27.6335 205.236 28.0455C205.014 28.4527 204.903 28.9451 204.903 29.5227ZM228.917 26.0497C228.78 25.6188 228.596 25.233 228.364 24.892C228.136 24.5464 227.864 24.2528 227.547 24.0114C227.23 23.7652 226.867 23.5781 226.46 23.4503C226.058 23.3224 225.615 23.2585 225.132 23.2585C224.313 23.2585 223.574 23.4692 222.916 23.8906C222.258 24.312 221.737 24.9299 221.354 25.7443C220.975 26.554 220.785 27.5459 220.785 28.7202C220.785 29.8991 220.977 30.8958 221.361 31.7102C221.744 32.5246 222.27 33.1425 222.937 33.5639C223.605 33.9853 224.365 34.196 225.217 34.196C226.008 34.196 226.697 34.035 227.284 33.7131C227.876 33.3911 228.333 32.9366 228.655 32.3494C228.981 31.7576 229.145 31.0616 229.145 30.2614L229.713 30.3679H225.551V28.5568H231.268V30.2116C231.268 31.4332 231.008 32.4938 230.487 33.3935C229.971 34.2884 229.256 34.9796 228.342 35.4673C227.433 35.955 226.391 36.1989 225.217 36.1989C223.901 36.1989 222.746 35.8958 221.751 35.2898C220.762 34.6837 219.99 33.8243 219.436 32.7116C218.882 31.5942 218.605 30.2685 218.605 28.7344C218.605 27.5743 218.766 26.5327 219.088 25.6094C219.41 24.6861 219.862 23.9025 220.444 23.2585C221.032 22.6098 221.721 22.1151 222.511 21.7741C223.307 21.4285 224.176 21.2557 225.118 21.2557C225.904 21.2557 226.635 21.3717 227.312 21.6037C227.994 21.8357 228.6 22.1648 229.131 22.5909C229.666 23.017 230.108 23.5237 230.459 24.1108C230.809 24.6932 231.046 25.3395 231.169 26.0497H228.917ZM237.879 36.2202C236.856 36.2202 235.964 35.9858 235.201 35.517C234.439 35.0483 233.847 34.3925 233.426 33.5497C233.004 32.7069 232.794 31.7221 232.794 30.5952C232.794 29.4635 233.004 28.474 233.426 27.6264C233.847 26.7789 234.439 26.1207 235.201 25.652C235.964 25.1832 236.856 24.9489 237.879 24.9489C238.902 24.9489 239.794 25.1832 240.556 25.652C241.319 26.1207 241.911 26.7789 242.332 27.6264C242.753 28.474 242.964 29.4635 242.964 30.5952C242.964 31.7221 242.753 32.7069 242.332 33.5497C241.911 34.3925 241.319 35.0483 240.556 35.517C239.794 35.9858 238.902 36.2202 237.879 36.2202ZM237.886 34.4375C238.549 34.4375 239.098 34.2623 239.534 33.9119C239.969 33.5616 240.291 33.0952 240.5 32.5128C240.713 31.9304 240.819 31.2888 240.819 30.5881C240.819 29.892 240.713 29.2528 240.5 28.6705C240.291 28.0833 239.969 27.6122 239.534 27.2571C239.098 26.902 238.549 26.7244 237.886 26.7244C237.218 26.7244 236.664 26.902 236.224 27.2571C235.788 27.6122 235.464 28.0833 235.251 28.6705C235.043 29.2528 234.939 29.892 234.939 30.5881C234.939 31.2888 235.043 31.9304 235.251 32.5128C235.464 33.0952 235.788 33.5616 236.224 33.9119C236.664 34.2623 237.218 34.4375 237.886 34.4375ZM249.33 36.2202C248.307 36.2202 247.414 35.9858 246.652 35.517C245.89 35.0483 245.298 34.3925 244.877 33.5497C244.455 32.7069 244.244 31.7221 244.244 30.5952C244.244 29.4635 244.455 28.474 244.877 27.6264C245.298 26.7789 245.89 26.1207 246.652 25.652C247.414 25.1832 248.307 24.9489 249.33 24.9489C250.352 24.9489 251.245 25.1832 252.007 25.652C252.77 26.1207 253.361 26.7789 253.783 27.6264C254.204 28.474 254.415 29.4635 254.415 30.5952C254.415 31.7221 254.204 32.7069 253.783 33.5497C253.361 34.3925 252.77 35.0483 252.007 35.517C251.245 35.9858 250.352 36.2202 249.33 36.2202ZM249.337 34.4375C250 34.4375 250.549 34.2623 250.985 33.9119C251.42 33.5616 251.742 33.0952 251.95 32.5128C252.163 31.9304 252.27 31.2888 252.27 30.5881C252.27 29.892 252.163 29.2528 251.95 28.6705C251.742 28.0833 251.42 27.6122 250.985 27.2571C250.549 26.902 250 26.7244 249.337 26.7244C248.669 26.7244 248.115 26.902 247.675 27.2571C247.239 27.6122 246.915 28.0833 246.702 28.6705C246.494 29.2528 246.389 29.892 246.389 30.5881C246.389 31.2888 246.494 31.9304 246.702 32.5128C246.915 33.0952 247.239 33.5616 247.675 33.9119C248.115 34.2623 248.669 34.4375 249.337 34.4375ZM260.759 40.3182C259.893 40.3182 259.147 40.2045 258.522 39.9773C257.902 39.75 257.395 39.4493 257.002 39.0753C256.609 38.7012 256.316 38.2917 256.121 37.8466L257.947 37.0938C258.075 37.3021 258.245 37.5223 258.458 37.7543C258.676 37.991 258.969 38.1922 259.339 38.358C259.713 38.5237 260.193 38.6065 260.78 38.6065C261.585 38.6065 262.251 38.41 262.776 38.017C263.302 37.6288 263.565 37.0085 263.565 36.1562V34.0114H263.43C263.302 34.2434 263.117 34.5014 262.876 34.7855C262.639 35.0696 262.312 35.3158 261.896 35.5241C261.479 35.7325 260.937 35.8366 260.269 35.8366C259.407 35.8366 258.631 35.6354 257.94 35.233C257.253 34.8258 256.709 34.2268 256.306 33.4361C255.908 32.6406 255.709 31.6629 255.709 30.5028C255.709 29.3428 255.906 28.3485 256.299 27.5199C256.697 26.6913 257.241 26.0568 257.932 25.6165C258.624 25.1714 259.407 24.9489 260.283 24.9489C260.96 24.9489 261.507 25.0625 261.924 25.2898C262.341 25.5123 262.665 25.7727 262.897 26.071C263.134 26.3693 263.316 26.6321 263.444 26.8594H263.6V25.0909H265.681V36.2415C265.681 37.179 265.463 37.9484 265.028 38.5497C264.592 39.151 264.003 39.5961 263.259 39.8849C262.521 40.1738 261.687 40.3182 260.759 40.3182ZM260.738 34.0753C261.349 34.0753 261.865 33.9332 262.286 33.6491C262.712 33.3603 263.034 32.9484 263.252 32.4134C263.475 31.8736 263.586 31.2273 263.586 30.4744C263.586 29.7405 263.477 29.0942 263.259 28.5355C263.041 27.9768 262.722 27.5412 262.3 27.2287C261.879 26.9115 261.358 26.7528 260.738 26.7528C260.099 26.7528 259.566 26.9186 259.14 27.25C258.714 27.5767 258.392 28.0218 258.174 28.5852C257.961 29.1487 257.854 29.7784 257.854 30.4744C257.854 31.1894 257.963 31.8168 258.181 32.3565C258.399 32.8963 258.721 33.3177 259.147 33.6207C259.578 33.9238 260.108 34.0753 260.738 34.0753ZM270.053 21.4545V36H267.929V21.4545H270.053ZM277.011 36.2202C275.936 36.2202 275.011 35.9905 274.234 35.5312C273.462 35.0672 272.866 34.4162 272.444 33.5781C272.028 32.7353 271.819 31.7481 271.819 30.6165C271.819 29.4991 272.028 28.5142 272.444 27.6619C272.866 26.8097 273.453 26.1444 274.206 25.6662C274.963 25.188 275.849 24.9489 276.862 24.9489C277.478 24.9489 278.074 25.0507 278.652 25.2543C279.23 25.4579 279.748 25.7775 280.207 26.2131C280.667 26.6487 281.029 27.2145 281.294 27.9105C281.559 28.6018 281.692 29.4422 281.692 30.4318V31.1847H273.02V29.5938H279.611C279.611 29.035 279.497 28.5402 279.27 28.1094C279.042 27.6738 278.723 27.3305 278.311 27.0795C277.904 26.8286 277.426 26.7031 276.876 26.7031C276.28 26.7031 275.759 26.8499 275.314 27.1435C274.873 27.4323 274.533 27.8111 274.291 28.2798C274.054 28.7438 273.936 29.2481 273.936 29.7926V31.0355C273.936 31.7647 274.064 32.3849 274.319 32.8963C274.58 33.4077 274.942 33.7983 275.406 34.0682C275.87 34.3333 276.412 34.4659 277.033 34.4659C277.435 34.4659 277.802 34.4091 278.133 34.2955C278.465 34.1771 278.751 34.0019 278.993 33.7699C279.234 33.5379 279.419 33.2514 279.547 32.9105L281.557 33.2727C281.396 33.8646 281.107 34.383 280.69 34.8281C280.278 35.2685 279.76 35.6117 279.135 35.858C278.515 36.0994 277.807 36.2202 277.011 36.2202Z" fill="#573353"/>
</g>
<defs>
<filter id="filter0_dd_313_3230" x="0" y="0" width="327" height="60" filterUnits="userSpaceOnUse" color-interpolation-filters="sRGB">
<feFlood flood-opacity="0" result="BackgroundImageFix"/>
<feColorMatrix in="SourceAlpha" type="matrix" values="0 0 0 0 0 0 0 0 0 0 0 0 0 0 0 0 0 0 127 0" result="hardAlpha"/>
<feOffset/>
<feGaussianBlur stdDeviation="1"/>
<feComposite in2="hardAlpha" operator="out"/>
<feColorMatrix type="matrix" values="0 0 0 0 0 0 0 0 0 0 0 0 0 0 0 0 0 0 0.4 0"/>
<feBlend mode="normal" in2="BackgroundImageFix" result="effect1_dropShadow_313_3230"/>
<feColorMatrix in="SourceAlpha" type="matrix" values="0 0 0 0 0 0 0 0 0 0 0 0 0 0 0 0 0 0 127 0" result="hardAlpha"/>
<feOffset dy="2"/>
<feGaussianBlur stdDeviation="1"/>
<feComposite in2="hardAlpha" operator="out"/>
<feColorMatrix type="matrix" values="0 0 0 0 0 0 0 0 0 0 0 0 0 0 0 0 0 0 0.4 0"/>
<feBlend mode="normal" in2="effect1_dropShadow_313_3230" result="effect2_dropShadow_313_3230"/>
<feBlend mode="normal" in="SourceGraphic" in2="effect2_dropShadow_313_3230" result="shape"/>
</filter>
<filter id="filter1_d_313_3230" x="36.0001" y="19.7112" width="21.0973" height="26.7386" filterUnits="userSpaceOnUse" color-interpolation-filters="sRGB">
<feFlood flood-opacity="0" result="BackgroundImageFix"/>
<feColorMatrix in="SourceAlpha" type="matrix" values="0 0 0 0 0 0 0 0 0 0 0 0 0 0 0 0 0 0 127 0" result="hardAlpha"/>
<feOffset dy="4"/>
<feGaussianBlur stdDeviation="4"/>
<feColorMatrix type="matrix" values="0 0 0 0 0.984314 0 0 0 0 0.733333 0 0 0 0 0 0 0 0 0.12 0"/>
<feBlend mode="normal" in2="BackgroundImageFix" result="effect1_dropShadow_313_3230"/>
<feBlend mode="normal" in="SourceGraphic" in2="effect1_dropShadow_313_3230" result="shape"/>
</filter>
<filter id="filter2_d_313_3230" x="47.7528" y="22.8517" width="27.2472" height="27.1165" filterUnits="userSpaceOnUse" color-interpolation-filters="sRGB">
<feFlood flood-opacity="0" result="BackgroundImageFix"/>
<feColorMatrix in="SourceAlpha" type="matrix" values="0 0 0 0 0 0 0 0 0 0 0 0 0 0 0 0 0 0 127 0" result="hardAlpha"/>
<feOffset dy="4"/>
<feGaussianBlur stdDeviation="4"/>
<feColorMatrix type="matrix" values="0 0 0 0 0.317647 0 0 0 0 0.556863 0 0 0 0 0.972549 0 0 0 0.12 0"/>
<feBlend mode="normal" in2="BackgroundImageFix" result="effect1_dropShadow_313_3230"/>
<feBlend mode="normal" in="SourceGraphic" in2="effect1_dropShadow_313_3230" result="shape"/>
</filter>
<filter id="filter3_d_313_3230" x="37.3704" y="27.3992" width="33.329" height="25.1008" filterUnits="userSpaceOnUse" color-interpolation-filters="sRGB">
<feFlood flood-opacity="0" result="BackgroundImageFix"/>
<feColorMatrix in="SourceAlpha" type="matrix" values="0 0 0 0 0 0 0 0 0 0 0 0 0 0 0 0 0 0 127 0" result="hardAlpha"/>
<feOffset dy="4"/>
<feGaussianBlur stdDeviation="4"/>
<feColorMatrix type="matrix" values="0 0 0 0 0.156863 0 0 0 0 0.705882 0 0 0 0 0.27451 0 0 0 0.12 0"/>
<feBlend mode="normal" in2="BackgroundImageFix" result="effect1_dropShadow_313_3230"/>
<feBlend mode="normal" in="SourceGraphic" in2="effect1_dropShadow_313_3230" result="shape"/>
</filter>
<filter id="filter4_d_313_3230" x="37.286" y="13.5" width="33.5546" height="25.2783" filterUnits="userSpaceOnUse" color-interpolation-filters="sRGB">
<feFlood flood-opacity="0" result="BackgroundImageFix"/>
<feColorMatrix in="SourceAlpha" type="matrix" values="0 0 0 0 0 0 0 0 0 0 0 0 0 0 0 0 0 0 127 0" result="hardAlpha"/>
<feOffset dy="4"/>
<feGaussianBlur stdDeviation="4"/>
<feColorMatrix type="matrix" values="0 0 0 0 0.945098 0 0 0 0 0.262745 0 0 0 0 0.211765 0 0 0 0.12 0"/>
<feBlend mode="normal" in2="BackgroundImageFix" result="effect1_dropShadow_313_3230"/>
<feBlend mode="normal" in="SourceGraphic" in2="effect1_dropShadow_313_3230" result="shape"/>
</filter>
</defs>
</svg>
