<svg width="375" height="667" viewBox="0 0 375 667" fill="none" xmlns="http://www.w3.org/2000/svg">
<g clip-path="url(#clip0_310_3102)">
<rect width="375" height="667" fill="white"/>
<path fill-rule="evenodd" clip-rule="evenodd" d="M5.07663 735.085C-39.5737 693.627 -143.387 704.4 -148.801 643.878C-153.473 591.643 -67.5038 561.844 -11.3194 551.785C34.7297 543.54 64.4986 588.443 108.844 597.749C163.683 609.257 239.694 569.408 271.963 611.231C303.884 652.601 282.193 728.508 236.202 762.808C192.386 795.485 135.642 743.015 82.0108 752.896C55.4737 757.786 47.2302 808.188 21.828 802.307C-2.95827 796.569 22.8481 751.586 5.07663 735.085Z" fill="#F6AF90"/>
<path fill-rule="evenodd" clip-rule="evenodd" d="M38.1467 -219.999C114.264 -219.812 165.666 -169.976 189.612 -116.961C214.114 -62.7128 214.223 -0.120002 153.712 35.8623C83.1972 77.7938 -20.0303 91.1543 -91.7837 50.3695C-158.908 12.216 -144.713 -58.9579 -116.477 -117.714C-90.9631 -170.804 -38.5742 -220.188 38.1467 -219.999Z" fill="#A5D2AC"/>
<path fill-rule="evenodd" clip-rule="evenodd" d="M415.496 533C516.544 533.141 584.783 570.475 616.572 610.192C649.099 650.832 649.244 697.724 568.914 724.68C475.302 756.093 338.264 766.102 243.009 735.548C153.899 706.965 172.744 653.645 210.228 609.628C244.098 569.855 313.646 532.859 415.496 533Z" fill="#FCCA1B" fill-opacity="0.5"/>
<path fill-rule="evenodd" clip-rule="evenodd" d="M432.681 -63.3563C478.384 -2.21481 608.755 7.86351 601.811 83.6743C595.818 149.104 483.159 166.489 411.649 166.246C353.04 166.047 326.453 104.008 273.891 82.5622C208.893 56.0417 106.246 88.0528 75.8837 29.2477C45.8491 -28.9226 89.6607 -117.595 154.061 -149.522C215.414 -179.939 273.545 -102.504 341.868 -102.617C375.674 -102.673 397.174 -162.937 427.158 -149.974C456.416 -137.326 414.49 -87.6915 432.681 -63.3563Z" fill="#82A8AD" fill-opacity="0.6"/>
</g>
<defs>
<clipPath id="clip0_310_3102">
<rect width="375" height="667" fill="white"/>
</clipPath>
</defs>
</svg>
