<svg width="26" height="24" viewBox="0 0 26 24" fill="none" xmlns="http://www.w3.org/2000/svg">
<path d="M15.1814 7.22578C15.1814 10.3834 12.6554 12.9274 9.55882 12.9274C6.46227 12.9274 3.93627 10.3834 3.93627 7.22578C3.93627 4.06812 6.46227 1.52417 9.55882 1.52417C12.6554 1.52417 15.1814 4.06812 15.1814 7.22578ZM18.3676 21.9927C18.3676 22.5891 18.1847 22.8141 17.9692 22.9487C17.673 23.1337 17.1548 23.243 16.312 23.2496C15.5543 23.2557 14.6562 23.1815 13.6124 23.0954C13.5229 23.088 13.4324 23.0806 13.3409 23.073C12.1963 22.9791 10.9121 22.8812 9.55882 22.8812C8.20553 22.8812 6.92136 22.9791 5.77677 23.073C5.68521 23.0806 5.59472 23.088 5.5053 23.0954C4.46141 23.1815 3.56335 23.2557 2.80566 23.2496C1.96282 23.243 1.44468 23.1337 1.14845 22.9487C0.932957 22.8141 0.75 22.5891 0.75 21.9927C0.75 20.7761 1.57589 19.5465 3.18555 18.5808C4.78027 17.6241 7.03177 17.008 9.55882 17.008C12.0859 17.008 14.3374 17.6241 15.9321 18.5808C17.5418 19.5465 18.3676 20.7761 18.3676 21.9927Z" stroke="#444444" stroke-width="1.5"/>
<g filter="url(#filter0_d_583_4895)">
<path d="M17.5294 11.5534V2.38215C17.5294 1.92168 17.8981 1.5484 18.3529 1.5484C18.8078 1.5484 19.1765 1.92168 19.1765 2.38215V6.96776V11.5534C19.1765 12.0138 18.8078 12.3871 18.3529 12.3871C17.8981 12.3871 17.5294 12.0138 17.5294 11.5534Z" fill="#444444"/>
<path d="M22.8824 7.8015H13.8235C13.3687 7.8015 13 7.42822 13 6.96776C13 6.50729 13.3687 6.13401 13.8235 6.13401H22.8824C23.3372 6.13401 23.7059 6.50729 23.7059 6.96776C23.7059 7.42822 23.3372 7.8015 22.8824 7.8015Z" fill="#444444"/>
</g>
<defs>
<filter id="filter0_d_583_4895" x="12" y="1.5484" width="12.7059" height="12.8387" filterUnits="userSpaceOnUse" color-interpolation-filters="sRGB">
<feFlood flood-opacity="0" result="BackgroundImageFix"/>
<feColorMatrix in="SourceAlpha" type="matrix" values="0 0 0 0 0 0 0 0 0 0 0 0 0 0 0 0 0 0 127 0" result="hardAlpha"/>
<feOffset dy="1"/>
<feGaussianBlur stdDeviation="0.5"/>
<feComposite in2="hardAlpha" operator="out"/>
<feColorMatrix type="matrix" values="0 0 0 0 0 0 0 0 0 0 0 0 0 0 0 0 0 0 0.5 0"/>
<feBlend mode="normal" in2="BackgroundImageFix" result="effect1_dropShadow_583_4895"/>
<feBlend mode="normal" in="SourceGraphic" in2="effect1_dropShadow_583_4895" result="shape"/>
</filter>
</defs>
</svg>
