<svg width="21" height="24" viewBox="0 0 21 24" fill="none" xmlns="http://www.w3.org/2000/svg">
<path d="M13.7708 0.25C14.001 0.25 14.1875 0.436548 14.1875 0.666667C14.1875 1.17293 14.5979 1.58333 15.1042 1.58333H20C20.4142 1.58333 20.75 1.91912 20.75 2.33333V3.34375C20.75 3.56812 20.5681 3.75 20.3438 3.75C19.8432 3.75 19.4375 4.15574 19.4375 4.65625V21.3333C19.4375 22.6657 18.3645 23.75 17.0625 23.75H3.9375C2.63552 23.75 1.5625 22.6657 1.5625 21.3333V4.65625C1.5625 4.15574 1.15676 3.75 0.65625 3.75C0.431884 3.75 0.25 3.56812 0.25 3.34375V2.33333C0.25 1.91912 0.585787 1.58333 1 1.58333H5.89583C6.40209 1.58333 6.8125 1.17293 6.8125 0.666667C6.8125 0.436548 6.99905 0.25 7.22917 0.25H13.7708ZM3.6875 20.3333C3.6875 21.0237 4.24714 21.5833 4.9375 21.5833H16.0625C16.7529 21.5833 17.3125 21.0237 17.3125 20.3333V5C17.3125 4.30965 16.7529 3.75 16.0625 3.75H4.9375C4.24714 3.75 3.6875 4.30964 3.6875 5V20.3333ZM6.8125 7.66667C6.8125 7.25245 7.14829 6.91667 7.5625 6.91667H8.1875C8.60171 6.91667 8.9375 7.25245 8.9375 7.66667V17.6667C8.9375 18.0809 8.60171 18.4167 8.1875 18.4167H7.5625C7.14829 18.4167 6.8125 18.0809 6.8125 17.6667V7.66667ZM13.4375 6.91667C13.8517 6.91667 14.1875 7.25245 14.1875 7.66667V17.6667C14.1875 18.0809 13.8517 18.4167 13.4375 18.4167H12.8125C12.3983 18.4167 12.0625 18.0809 12.0625 17.6667V7.66667C12.0625 7.25245 12.3983 6.91667 12.8125 6.91667H13.4375Z" fill="#444444" stroke="white" stroke-width="0.5"/>
</svg>
