<svg width="24" height="24" viewBox="0 0 24 24" fill="none" xmlns="http://www.w3.org/2000/svg">
<path d="M23.0335 2.75744L23.0346 2.75856C23.9887 3.70097 23.9887 5.2348 23.0346 6.17721L23.0335 6.17834L5.46915 23.75H0.25018V18.5285L14.0414 4.71829L14.0418 4.71789L17.8142 0.957247L17.8145 0.956934C18.7568 0.0143254 20.2915 0.0143254 21.2337 0.956934L23.0335 2.75744ZM2.41648 21.3326V21.5722L2.65584 21.5823L4.53558 21.6624L4.64541 21.667L4.72309 21.5893L21.5757 4.71792L21.7522 4.54118L21.5756 4.3645L19.6959 2.48397L19.519 2.3071L19.3422 2.48397L2.48967 19.342L2.41648 19.4152V19.5187V21.3326Z" fill="#444444" stroke="white" stroke-width="0.5"/>
</svg>
