<svg width="46" height="32" viewBox="0 0 46 32" fill="none" xmlns="http://www.w3.org/2000/svg">
<path d="M2.97623 14.4512C2.97625 14.4514 2.97629 14.4515 2.97635 14.4517C2.97763 14.4549 2.97698 14.4589 2.97741 14.4632C2.97772 14.4665 2.98127 14.4691 2.98242 14.4734C6.82987 27.5391 13.5188 32.0115 27.7756 31.71C28.5239 31.6942 28.6894 30.6901 27.9979 30.4012C21.785 27.8049 26.47 29.892 19.6814 25.1066C16.057 22.5516 10.7217 15.5512 9.11015 12.1614C9.10724 12.1543 9.10774 12.148 9.10484 12.1408C9.10342 12.1376 9.09932 12.1362 9.09776 12.1319C7.85546 9.05574 7.15696 7.71167 6.04887 7.34783C5.75215 7.24147 5.41063 7.21178 4.99127 7.25347C4.2894 7.32328 3.33153 7.59875 2.74944 8.51652C1.98741 9.71782 2.06544 11.7697 2.97616 14.4509C2.9762 14.451 2.97622 14.4511 2.97623 14.4512Z" fill="#F0FFF2"/>
<path fill-rule="evenodd" clip-rule="evenodd" d="M2.74944 8.51652C3.33153 7.59875 4.2894 7.32328 4.99127 7.25347C5.41063 7.21178 5.75215 7.24147 6.04887 7.34783C7.15696 7.71167 7.85546 9.05574 9.09776 12.1319C9.09861 12.1343 9.10024 12.1358 9.10179 12.1372C9.10307 12.1383 9.1042 12.1394 9.10484 12.1408C9.10632 12.1444 9.10689 12.1478 9.10753 12.1511C9.10809 12.1545 9.10873 12.1578 9.11015 12.1614C10.7217 15.5512 16.057 22.5516 19.6814 25.1066C23.3242 27.6744 23.6632 28.2634 24.1551 28.659C24.5657 28.9891 25.0827 29.1846 27.7157 30.2833C27.7162 30.2835 27.7168 30.2837 27.7173 30.284C27.7269 30.288 27.7365 30.292 27.7462 30.296C27.828 30.3302 27.9119 30.3652 27.9979 30.4012C28.6894 30.6901 28.5239 31.6942 27.7756 31.71C27.6692 31.7123 27.5634 31.7143 27.4578 31.716C27.4542 31.716 27.4506 31.716 27.4469 31.7161H27.4467C13.4157 31.9419 6.80016 27.4382 2.98242 14.4734C2.98186 14.4713 2.98073 14.4696 2.97967 14.468C2.97857 14.4664 2.97757 14.4649 2.97741 14.4632C2.97726 14.4616 2.97724 14.4601 2.97723 14.4587C2.9772 14.4561 2.97718 14.4537 2.97635 14.4516L2.97628 14.4514L2.97623 14.4512L2.97621 14.4511L2.97616 14.4509C2.06544 11.7696 1.98741 9.71782 2.74944 8.51652ZM4.34216 14.0768C6.21869 20.4448 8.71716 24.473 12.2743 26.9258C15.178 28.9281 18.9414 29.9886 24.0007 30.2383C23.6531 30.06 23.3947 29.8888 23.1231 29.6489C23.0257 29.5629 22.9124 29.4544 22.8087 29.355C22.7671 29.3153 22.7271 29.277 22.6903 29.2421C22.5398 29.0999 22.3451 28.9211 22.0619 28.6817C21.4912 28.1992 20.5468 27.4583 18.8707 26.2768C16.889 24.8799 14.5476 22.3617 12.5381 19.8419C10.5229 17.315 8.70852 14.6184 7.83395 12.7787L7.81604 12.7412L7.80118 12.7046C7.79573 12.692 7.79043 12.6792 7.78519 12.6662C7.16078 11.1201 6.71592 10.1224 6.31832 9.47219C5.93052 8.83802 5.70766 8.73716 5.61074 8.70532L5.5928 8.69947L5.57503 8.69312C5.5316 8.67756 5.41237 8.64622 5.13012 8.67427C4.61698 8.72531 4.18437 8.90334 3.94172 9.28588C3.76932 9.55764 3.6184 10.049 3.64988 10.8738C3.68103 11.6902 3.88813 12.731 4.31516 13.9882C4.32209 14.0086 4.32858 14.0292 4.33462 14.05C4.33727 14.059 4.33977 14.068 4.34216 14.0768Z" fill="#968EB0"/>
<path d="M43.1689 11.1096C44.7166 14.8387 44.7137 18.9458 43.1583 22.6739L43.1585 22.6742C40.6194 28.7708 33.5631 31.6646 27.4358 29.1447C25.0872 28.1752 23.2586 26.3533 22.2867 24.0139C21.3151 21.6733 21.3165 19.0963 22.2908 16.7573C23.0575 14.9151 24.5028 13.4806 26.357 12.7175C28.2115 11.9557 30.251 11.9551 32.1047 12.7201C33.561 13.3184 34.6957 14.4457 35.2982 15.8965C36.0301 17.6545 33.6708 19.6671 31.8529 19.0777C31.7801 19.0541 31.7064 19.0298 31.6321 19.0048C28.5919 17.9809 26.282 20.8938 28.3804 23.3111C28.6927 23.6708 29.0822 23.9667 29.5435 24.0901C32.2521 24.8145 35.1736 23.45 36.2841 20.7998C36.9941 19.0864 36.9935 17.2016 36.2825 15.4913C35.57 13.7782 34.2309 12.4455 32.5112 11.7399C30.3968 10.8665 28.0665 10.8654 25.9492 11.737C23.8305 12.6092 22.1808 14.2466 21.3045 16.3504C20.2212 18.9521 20.2192 21.8163 21.299 24.4174C21.4989 24.8989 20.8278 25.5329 20.4083 25.2214C18.0659 23.4818 15.3666 21.1345 13.3209 18.2124C12.2279 16.6512 12.0051 16.4491 11.6355 15.8782C11.0349 14.9505 10.9933 13.7617 11.5107 12.7856C16.0554 4.21111 25.8666 -0.823956 34.9588 2.92779C38.7048 4.47629 41.6197 7.38147 43.1689 11.1096Z" fill="#9DB2CE" stroke="#9DB2CE"/>
<path fill-rule="evenodd" clip-rule="evenodd" d="M43.0751 11.1461C44.3855 14.3005 44.5776 17.7272 43.6504 20.9618C43.6502 20.9623 43.6502 20.9626 43.65 20.963C43.4888 21.5255 43.2936 22.082 43.0647 22.6303C43.0646 22.6304 43.0646 22.6305 43.0646 22.6305C43.0646 22.6305 43.0646 22.6305 43.0646 22.6306C43.0647 22.6306 43.0649 22.6307 43.0649 22.6307C43.0648 22.6308 43.0648 22.6309 43.0647 22.6309C42.8344 23.1835 42.5666 23.7097 42.2656 24.2077C42.5508 24.3514 42.8824 24.4208 43.2384 24.3859C42.8799 24.421 42.5486 24.3519 42.2648 24.2089C39.2674 29.1655 32.9713 31.3304 27.4376 29.0566C25.5798 28.2904 24.0495 26.988 23.015 25.317C22.7497 24.8884 22.517 24.4355 22.3198 23.9612C22.3195 23.9604 22.3191 23.9597 22.3188 23.9589C21.3541 21.6352 21.3558 19.0769 22.3239 16.7548C22.3239 16.7547 22.3239 16.7547 22.3239 16.7547C23.0859 14.9254 24.5223 13.5008 26.3649 12.7429C26.365 12.7429 26.365 12.7429 26.3651 12.7429C26.3651 12.7429 26.3653 12.7428 26.3654 12.7428C28.2081 11.9865 30.2343 11.9856 32.0763 12.7447C32.0769 12.745 32.0775 12.7452 32.0781 12.7454C32.0784 12.7456 32.0785 12.7456 32.0787 12.7457C33.5259 13.3399 34.6535 14.4593 35.2523 15.8999C35.2523 15.8999 35.2523 15.8999 35.2523 15.9C35.2523 15.9001 35.2524 15.9002 35.2524 15.9002C35.5223 16.5484 35.3688 17.2313 34.9767 17.804C34.3125 18.7737 32.9638 19.4271 31.8279 19.0591C31.7555 19.0356 31.6823 19.0115 31.6084 18.9867C28.5867 17.9699 26.2908 20.8626 28.3765 23.2632C28.6869 23.6205 29.0741 23.9143 29.5325 24.0368C32.2247 24.7563 35.1284 23.4012 36.2322 20.7693C36.5699 19.9551 36.7458 19.1019 36.7601 18.2475C36.7756 17.3162 36.5992 16.3834 36.2307 15.4977C36.2307 15.4976 36.2307 15.4974 36.2306 15.4974C36.2305 15.4972 36.2305 15.4969 36.2303 15.4967C35.5222 13.7964 34.1921 12.4733 32.4837 11.7726C32.4832 11.7724 32.4827 11.7722 32.4822 11.772C32.4822 11.772 32.4821 11.772 32.4821 11.7719C30.3809 10.9047 28.0652 10.9036 25.9611 11.7686C25.9609 11.7686 25.9607 11.7688 25.9604 11.7688C25.9603 11.7689 25.9602 11.769 25.96 11.769C23.8542 12.6353 22.2146 14.2613 21.3437 16.3506C21.3436 16.3506 21.3436 16.3506 21.3436 16.3506C21.3436 16.3507 21.3435 16.3508 21.3435 16.3508C20.4073 18.5976 20.2836 21.0413 20.973 23.3392C20.991 23.3991 21.0096 23.4589 21.0286 23.5186C21.0924 23.7181 21.1623 23.9163 21.2383 24.1132C21.2705 24.1964 21.3037 24.2793 21.3381 24.3619C21.3384 24.3627 21.3387 24.3634 21.339 24.3642C21.3391 24.3643 21.3391 24.3644 21.3391 24.3645C21.4667 24.6768 21.2267 25.0528 20.9289 25.1895C20.7711 25.2621 20.597 25.2673 20.4528 25.1603C20.329 25.0685 20.2042 24.9748 20.0785 24.8795C19.9206 24.7599 19.7614 24.6375 19.6012 24.5125C19.5522 24.4743 19.5032 24.4359 19.4541 24.3972C17.3842 22.767 15.1563 20.6943 13.4084 18.1997C12.8225 17.3634 12.4881 16.9198 12.2468 16.5996C12.0407 16.3262 11.9025 16.1428 11.7333 15.8817C11.1363 14.9604 11.095 13.7799 11.6093 12.8105C16.1263 4.29518 25.878 -0.705112 34.9149 3.02073C38.6382 4.55853 41.5354 7.44365 43.0751 11.1461ZM21.8129 26.7125C21.2026 27.0389 20.2864 27.2374 19.3923 26.574C16.9892 24.7909 14.1397 22.3284 11.9534 19.2082C11.4244 18.4531 11.1097 18.032 10.8817 17.7291C10.8619 17.7029 10.8424 17.6771 10.8232 17.6515C10.6214 17.3839 10.4471 17.1528 10.2425 16.8372C9.29145 15.3694 9.23385 13.5084 10.0406 11.9875C14.8662 2.89075 25.4944 -2.77263 35.5941 1.39139L35.5946 1.3916L35.5951 1.39181C39.7523 3.10884 42.9944 6.33726 44.714 10.4719L44.7143 10.4727C46.4279 14.5979 46.429 19.15 44.7152 23.2765C44.7118 23.285 44.7084 23.2934 44.7049 23.3019L44.704 23.304L44.7031 23.3061C41.8031 30.2639 33.7509 33.5592 26.7604 30.6867L26.7582 30.6858C24.7312 29.8498 23.0291 28.472 21.8129 26.7125ZM44.5105 21.6092C44.8017 22.0167 44.9225 22.5453 44.7819 23.0738C44.9204 22.5494 44.8015 22.0188 44.5105 21.6092ZM34.3931 20.5019C33.4744 20.9217 32.3766 21.0919 31.2786 20.7362C31.1996 20.7106 31.12 20.6843 31.0401 20.6574C30.1712 20.365 29.6657 20.6817 29.4845 20.9167C29.3862 21.0442 29.3395 21.1892 29.3478 21.3481C29.3558 21.5032 29.4227 21.7696 29.7185 22.1101C29.8794 22.2953 29.9813 22.3304 29.9927 22.3334C31.6974 22.789 33.525 22.0295 34.3931 20.5019Z" fill="#968EB0"/>
<path d="M6.41211 3.21724C6.41211 2.91696 6.13195 2.67136 5.86041 2.83538C5.83066 2.85335 5.80117 2.87279 5.77198 2.8937C5.56904 3.03904 5.38464 3.25207 5.22931 3.52062C5.07399 3.78918 4.95078 4.108 4.86671 4.45888C4.78265 4.80976 4.73938 5.18584 4.73938 5.56563C4.73938 5.94543 4.78265 6.32151 4.86671 6.67238C4.95078 7.02325 5.07399 7.34207 5.22931 7.61062C5.38464 7.87917 5.56904 8.09222 5.77198 8.23758C5.80117 8.25844 5.83066 8.27793 5.86041 8.2959C6.13195 8.45993 6.41211 8.21431 6.41211 7.91401V7.77237C6.41211 7.55037 6.2023 7.36878 6.01266 7.23299C5.88602 7.14231 5.77095 7.00934 5.67403 6.84176C5.5771 6.67417 5.50021 6.47523 5.44775 6.25627C5.3953 6.03731 5.3683 5.80263 5.3683 5.56563C5.3683 5.32864 5.3953 5.09396 5.44775 4.875C5.50021 4.65604 5.5771 4.4571 5.67403 4.28951C5.77095 4.12193 5.88602 3.98899 6.01266 3.8983C6.2023 3.76249 6.41211 3.58094 6.41211 3.35891V3.21724Z" fill="#968EB0"/>
<path d="M0.0826922 4.2902C-0.103397 3.97772 0.0332213 3.57211 0.40578 3.62182C0.427855 3.62477 0.450137 3.62825 0.472618 3.63225C0.749881 3.68165 1.05199 3.8108 1.3617 4.01233C1.6714 4.21386 1.98264 4.48381 2.27762 4.80678C2.57262 5.12975 2.8456 5.49941 3.08097 5.89465C3.31635 6.28989 3.5095 6.70298 3.64942 7.11034C3.78935 7.51767 3.87328 7.91129 3.89644 8.26869C3.9196 8.62616 3.88155 8.94041 3.78443 9.19349C3.77655 9.214 3.7683 9.23408 3.75968 9.25375C3.61418 9.58532 3.17957 9.4905 2.99348 9.17805L2.88769 9.00039C2.76003 8.78602 2.85098 8.50038 2.93984 8.26883C3.00045 8.11084 3.0242 7.91476 3.00974 7.69173C2.99529 7.4687 2.94291 7.2231 2.85559 6.96888C2.76828 6.71469 2.64775 6.45691 2.50087 6.21027C2.35399 5.96364 2.18365 5.73297 1.99957 5.53142C1.81549 5.32989 1.62127 5.16143 1.42801 5.03567C1.23476 4.90992 1.04623 4.82933 0.873212 4.7985C0.619521 4.75329 0.316143 4.68222 0.18848 4.46784L0.0826922 4.2902Z" fill="#968EB0"/>
</svg>
