<svg width="25" height="26" viewBox="0 0 25 26" fill="none" xmlns="http://www.w3.org/2000/svg">
<path d="M21.5912 14.176C21.6392 13.792 21.6752 13.408 21.6752 13C21.6752 12.592 21.6392 12.208 21.5912 11.824L24.1232 9.844C24.3512 9.664 24.4112 9.34 24.2672 9.076L21.8672 4.924C21.7232 4.66 21.3992 4.564 21.1352 4.66L18.1472 5.86C17.5232 5.38 16.8512 4.984 16.1192 4.684L15.6632 1.504C15.6272 1.216 15.3752 1 15.0752 1H10.2752C9.9752 1 9.7232 1.216 9.6872 1.504L9.2312 4.684C8.4992 4.984 7.8272 5.392 7.2032 5.86L4.2152 4.66C3.9392 4.552 3.6272 4.66 3.4832 4.924L1.0832 9.076C0.927198 9.34 0.999198 9.664 1.2272 9.844L3.7592 11.824C3.7112 12.208 3.6752 12.604 3.6752 13C3.6752 13.396 3.7112 13.792 3.7592 14.176L1.2272 16.156C0.999198 16.336 0.939198 16.66 1.0832 16.924L3.4832 21.076C3.6272 21.34 3.9512 21.436 4.2152 21.34L7.2032 20.14C7.8272 20.62 8.4992 21.016 9.2312 21.316L9.6872 24.496C9.7232 24.784 9.9752 25 10.2752 25H15.0752C15.3752 25 15.6272 24.784 15.6632 24.496L16.1192 21.316C16.8512 21.016 17.5232 20.608 18.1472 20.14L21.1352 21.34C21.4112 21.448 21.7232 21.34 21.8672 21.076L24.2672 16.924C24.4112 16.66 24.3512 16.336 24.1232 16.156L21.5912 14.176ZM12.6752 17.2C10.3592 17.2 8.4752 15.316 8.4752 13C8.4752 10.684 10.3592 8.8 12.6752 8.8C14.9912 8.8 16.8752 10.684 16.8752 13C16.8752 15.316 14.9912 17.2 12.6752 17.2Z" stroke="#444444"/>
</svg>
