<svg width="24" height="26" viewBox="0 0 24 26" fill="none" xmlns="http://www.w3.org/2000/svg">
<path d="M16.564 18.772L16.3124 19.2041L16.6353 19.3921L16.9071 19.1357L16.564 18.772ZM15.508 20.572L15.9956 20.6828L16.0768 20.3253L15.7603 20.1403L15.508 20.572ZM7.048 15.628L7.30028 15.1963L6.98027 15.0093L6.7083 15.2611L7.048 15.628ZM7.048 10.372L6.7083 10.7389L6.97997 10.9904L7.29982 10.804L7.048 10.372ZM15.508 5.44L15.7598 5.87196L16.0769 5.6871L15.9956 5.32919L15.508 5.44ZM16.552 7.228L16.8951 6.8643L16.6232 6.60775L16.3002 6.79604L16.552 7.228ZM8.092 12.16L7.84018 11.728L7.52621 11.9111L7.60341 12.2662L8.092 12.16ZM8.092 13.84L7.60341 13.7338L7.52616 14.0891L7.84045 14.2721L8.092 13.84ZM19 17.3C17.9174 17.3 16.9445 17.7257 16.2209 18.4083L16.9071 19.1357C17.4555 18.6183 18.1866 18.3 19 18.3V17.3ZM23.1 21.4C23.1 19.1319 21.2681 17.3 19 17.3V18.3C20.7159 18.3 22.1 19.6841 22.1 21.4H23.1ZM19 25.5C21.2681 25.5 23.1 23.6681 23.1 21.4H22.1C22.1 23.1159 20.7159 24.5 19 24.5V25.5ZM14.9 21.4C14.9 23.6681 16.7319 25.5 19 25.5V24.5C17.2841 24.5 15.9 23.1159 15.9 21.4H14.9ZM15.0204 20.4612C14.957 20.7404 14.9 21.058 14.9 21.4H15.9C15.9 21.166 15.939 20.9316 15.9956 20.6828L15.0204 20.4612ZM6.79572 16.0597L15.2557 21.0037L15.7603 20.1403L7.30028 15.1963L6.79572 16.0597ZM4.6 17.1C5.68331 17.1 6.65438 16.6739 7.3877 15.9949L6.7083 15.2611C6.14562 15.7821 5.41269 16.1 4.6 16.1V17.1ZM0.5 13C0.5 15.2681 2.33186 17.1 4.6 17.1V16.1C2.88414 16.1 1.5 14.7159 1.5 13H0.5ZM4.6 8.9C2.33186 8.9 0.5 10.7319 0.5 13H1.5C1.5 11.2841 2.88414 9.9 4.6 9.9V8.9ZM7.3877 10.0051C6.65438 9.32611 5.68331 8.9 4.6 8.9V9.9C5.41269 9.9 6.14562 10.2179 6.7083 10.7389L7.3877 10.0051ZM15.2562 5.00804L6.79618 9.94004L7.29982 10.804L15.7598 5.87196L15.2562 5.00804ZM14.9 4.6C14.9 4.94054 14.9564 5.26918 15.0204 5.55081L15.9956 5.32919C15.9396 5.08282 15.9 4.83546 15.9 4.6H14.9ZM19 0.5C16.7319 0.5 14.9 2.33186 14.9 4.6H15.9C15.9 2.88414 17.2841 1.5 19 1.5V0.5ZM23.1 4.6C23.1 2.33186 21.2681 0.5 19 0.5V1.5C20.7159 1.5 22.1 2.88414 22.1 4.6H23.1ZM19 8.7C21.2681 8.7 23.1 6.86814 23.1 4.6H22.1C22.1 6.31586 20.7159 7.7 19 7.7V8.7ZM16.2089 7.5917C16.9338 8.27559 17.9192 8.7 19 8.7V7.7C18.1848 7.7 17.4422 7.38042 16.8951 6.8643L16.2089 7.5917ZM8.34382 12.592L16.8038 7.65996L16.3002 6.79604L7.84018 11.728L8.34382 12.592ZM8.7 13C8.7 12.6581 8.64296 12.3407 8.58059 12.0538L7.60341 12.2662C7.66104 12.5313 7.7 12.7659 7.7 13H8.7ZM8.58059 13.9462C8.64297 13.6593 8.7 13.3419 8.7 13H7.7C7.7 13.2341 7.66103 13.4687 7.60341 13.7338L8.58059 13.9462ZM16.8156 18.3399L8.34355 13.4079L7.84045 14.2721L16.3124 19.2041L16.8156 18.3399ZM19 3.9C19.3839 3.9 19.7 4.21614 19.7 4.6H20.7C20.7 3.66386 19.9361 2.9 19 2.9V3.9ZM18.3 4.6C18.3 4.21614 18.6161 3.9 19 3.9V2.9C18.0639 2.9 17.3 3.66386 17.3 4.6H18.3ZM19 5.3C18.6161 5.3 18.3 4.98386 18.3 4.6H17.3C17.3 5.53614 18.0639 6.3 19 6.3V5.3ZM19.7 4.6C19.7 4.98386 19.3839 5.3 19 5.3V6.3C19.9361 6.3 20.7 5.53614 20.7 4.6H19.7ZM2.9 13C2.9 13.9361 3.66386 14.7 4.6 14.7V13.7C4.21614 13.7 3.9 13.3839 3.9 13H2.9ZM4.6 11.3C3.66386 11.3 2.9 12.0639 2.9 13H3.9C3.9 12.6161 4.21614 12.3 4.6 12.3V11.3ZM6.3 13C6.3 12.0639 5.53614 11.3 4.6 11.3V12.3C4.98386 12.3 5.3 12.6161 5.3 13H6.3ZM4.6 14.7C5.53614 14.7 6.3 13.9361 6.3 13H5.3C5.3 13.3839 4.98386 13.7 4.6 13.7V14.7ZM19 22.1C18.6161 22.1 18.3 21.7839 18.3 21.4H17.3C17.3 22.3361 18.0639 23.1 19 23.1V22.1ZM19.7 21.4C19.7 21.7839 19.3839 22.1 19 22.1V23.1C19.9361 23.1 20.7 22.3361 20.7 21.4H19.7ZM19 20.7C19.3839 20.7 19.7 21.0161 19.7 21.4H20.7C20.7 20.4639 19.9361 19.7 19 19.7V20.7ZM18.3 21.4C18.3 21.0161 18.6161 20.7 19 20.7V19.7C18.0639 19.7 17.3 20.4639 17.3 21.4H18.3Z" fill="#444444"/>
</svg>
